<svg width="24" height="24" viewBox="0 0 24 24" fill="none" xmlns="http://www.w3.org/2000/svg">
<path d="M13.8543 16.1641V18.4742H11.5474C12.159 18.4717 12.7448 18.2274 13.177 17.7947C13.6092 17.3619 13.8526 16.7757 13.8543 16.1641Z" fill="#4CD9DF"/>
<path d="M11.5473 18.4742H9.2373V16.1641C9.23895 16.7763 9.48285 17.3629 9.91571 17.7957C10.3486 18.2286 10.9352 18.4725 11.5473 18.4742Z" fill="#4CD9DF"/>
<path d="M22.1791 7.04236C21.0126 4.27758 18.8133 2.07714 16.0491 0.909262C14.6256 0.300807 13.0923 -0.00861569 11.5442 0.000194759C9.99714 -0.00889883 8.46476 0.300544 7.04245 0.909262C4.27878 2.07897 2.07906 4.27869 0.90935 7.04236C0.299442 8.46539 -0.0100433 9.99903 0.00028186 11.5472C-0.010691 13.0945 0.298829 14.6272 0.90935 16.049C2.07906 18.8126 4.27878 21.0124 7.04245 22.1821C8.4642 22.7926 9.99696 23.1021 11.5442 23.0911C13.0924 23.1015 14.626 22.792 16.0491 22.1821C18.8133 21.0142 21.0126 18.8137 22.1791 16.049C22.7906 14.6275 23.1012 13.0947 23.0912 11.5472C23.1005 9.99882 22.7899 8.46519 22.1791 7.04236ZM8.09473 11.5472C7.94235 11.5497 7.79102 11.5216 7.64975 11.4644C7.50848 11.4073 7.38014 11.3223 7.27238 11.2146C7.16462 11.1068 7.07964 10.9785 7.02249 10.8372C6.96534 10.6959 6.93719 10.5446 6.93971 10.3922V6.92717C6.93971 6.62084 7.0614 6.32705 7.27801 6.11045C7.49461 5.89384 7.7884 5.77215 8.09473 5.77215C8.40106 5.77215 8.69484 5.89384 8.91144 6.11045C9.12805 6.32705 9.24974 6.62084 9.24974 6.92717V10.3922C9.25227 10.5446 9.22412 10.6959 9.16697 10.8372C9.10982 10.9785 9.02483 11.1068 8.91707 11.2146C8.80931 11.3223 8.68098 11.4073 8.5397 11.4644C8.39843 11.5216 8.2471 11.5497 8.09473 11.5472ZM13.8542 18.4742H9.23729V13.8541H13.8542V18.4742ZM16.1643 10.3798C16.1643 10.6861 16.0426 10.9799 15.826 11.1965C15.6094 11.4131 15.3156 11.5348 15.0092 11.5348C14.7029 11.5348 14.4091 11.4131 14.1925 11.1965C13.9759 10.9799 13.8542 10.6861 13.8542 10.3798V6.92717C13.8542 6.62084 13.9759 6.32705 14.1925 6.11045C14.4091 5.89384 14.7029 5.77215 15.0092 5.77215C15.3156 5.77215 15.6094 5.89384 15.826 6.11045C16.0426 6.32705 16.1643 6.62084 16.1643 6.92717V10.3798Z" fill="#4CD9DF"/>
</svg>