<svg width="78" height="78" viewBox="0 0 78 78" fill="none" xmlns="http://www.w3.org/2000/svg">
<path d="M74.8216 23.7576C70.8865 14.4305 63.467 7.00728 54.1419 3.06742C49.3398 1.01478 44.167 -0.0290652 38.9446 0.000657025C33.7256 -0.0300204 28.5561 1.01389 23.7579 3.06742C14.4346 7.01347 7.01376 14.4343 3.06771 23.7576C1.01017 28.5582 -0.0338812 33.732 0.000950862 38.9549C-0.0360664 44.1745 1.00811 49.3453 3.06771 54.1416C7.01376 63.465 14.4346 70.8857 23.7579 74.8318C28.5542 76.8914 33.725 77.9356 38.9446 77.8986C44.1675 77.9334 49.3413 76.8893 54.1419 74.8318C63.467 70.8919 70.8865 63.4687 74.8216 54.1416C76.8848 49.3461 77.9325 44.1753 77.8988 38.9549C77.9301 33.7313 76.8824 28.5575 74.8216 23.7576ZM27.3078 38.9549C26.7937 38.9634 26.2832 38.8684 25.8066 38.6756C25.33 38.4828 24.8971 38.1961 24.5335 37.8326C24.17 37.4691 23.8833 37.0361 23.6905 36.5595C23.4977 36.0829 23.4028 35.5724 23.4113 35.0584V23.369C23.4113 22.3356 23.8218 21.3445 24.5525 20.6138C25.2833 19.883 26.2743 19.4725 27.3078 19.4725C28.3412 19.4725 29.3322 19.883 30.063 20.6138C30.7937 21.3445 31.2042 22.3356 31.2042 23.369V35.0584C31.2127 35.5724 31.1178 36.0829 30.925 36.5595C30.7322 37.0361 30.4455 37.4691 30.082 37.8326C29.7184 38.1961 29.2855 38.4828 28.8089 38.6756C28.3323 38.8684 27.8218 38.9634 27.3078 38.9549ZM46.7376 62.3232H31.1622V46.7373H46.7376V62.3232ZM54.5305 35.0164C54.5305 36.0498 54.12 37.0409 53.3893 37.7716C52.6586 38.5023 51.6675 38.9128 50.6341 38.9128C49.6006 38.9128 48.6096 38.5023 47.8788 37.7716C47.1481 37.0409 46.7376 36.0498 46.7376 35.0164V23.369C46.7376 22.3356 47.1481 21.3445 47.8788 20.6138C48.6096 19.883 49.6006 19.4725 50.6341 19.4725C51.6675 19.4725 52.6586 19.883 53.3893 20.6138C54.12 21.3445 54.5305 22.3356 54.5305 23.369V35.0164Z" fill="#4CD9DF"/>
<path d="M46.7379 54.5303L46.7376 62.3232L38.9555 62.3232C41.0187 62.3149 42.995 61.4909 44.453 60.0309C45.911 58.5709 46.7324 56.5936 46.7379 54.5303Z" fill="#4CD9DF"/>
<path d="M38.9555 62.3232L31.1622 62.3232L31.1622 54.5303C31.1678 56.5954 31.9906 58.5743 33.4508 60.0346C34.9111 61.4949 36.8903 62.3177 38.9555 62.3232Z" fill="#4CD9DF"/>
</svg>
